<!DOCTYPE svg PUBLIC "-//W3C//DTD SVG 1.1//EN" "http://www.w3.org/Graphics/SVG/1.1/DTD/svg11.dtd">
<!-- Uploaded to: SVG Repo, www.svgrepo.com, Transformed by: SVG Repo Mixer Tools -->
<svg height="800px" width="800px" version="1.1" id="Layer_1" xmlns="http://www.w3.org/2000/svg" xmlns:xlink="http://www.w3.org/1999/xlink" viewBox="0 0 492.016 492.016" xml:space="preserve" fill="#000000">
<g id="SVGRepo_bgCarrier" stroke-width="0"/>
<g id="SVGRepo_tracerCarrier" stroke-linecap="round" stroke-linejoin="round"/>
<g id="SVGRepo_iconCarrier"> <g transform="translate(0 -1020.36)" shape-rendering="auto" image-rendering="auto" color-rendering="auto" color-interpolation="sRGB"> <path style="fill:#484666;" d="M232.117,1020.448c-8.487-0.544-17.012,1.44-24.47,5.782l-38.157,22.25 c-2.207,1.296-4.769,1.664-7.219,1.008l-36.782-10.063l12.657,18.095l18.126,26.03c0.223,0.32,0.539,0.545,0.781,0.848 l-4.25,15.783c-1.732,6.527-1.873,13.348-0.531,19.969l5.406,26.875c0.649,3.207,0.738,6.518,0.251,9.75l-0.688,4.406 c-3.296,21.863,10.318,42.93,31.595,48.689l3.813,1.023c4.296,1.168,8.721,1.609,13.126,1.408 c4.404-0.207,8.791-1.088,12.969-2.623l31.001-11.377v2.064c0,4.256,0.927,8.418,2.5,12.313c-1.941-0.16-3.849-0.367-5.813-0.367 h-40.657h-51.689c0.118-18.229-12.218-34.98-30.689-39.5c-16.16-3.953-32.596,2.447-42.095,14.938 c-5.927-7.768-14.313-13.512-24.282-15.406c-15.357-2.922-31.089,3.221-40.283,15.813c-9.702,13.287-7.168,29.57-3.188,41.596 c5.858,17.693,21.557,35.734,35.782,50.438s27.157,25.625,27.157,25.625c3.198,2.701,7.936,2.484,10.875-0.496l32.251-32 c0.68-0.568,1.26-1.244,1.719-2.002h59.752v2.156c0,20.432,3.336,40.773,9.813,60.158l2.969,8.936 c5.355,16.031,14.37,30.555,26.345,42.504l6.906,6.873c4.529,4.52,7.063,10.609,7.063,17v29.314c0,8.75,3.486,17.156,9.688,23.344 l41.282,41.158c12.852,12.822,33.9,12.822,46.752,0l0.844-0.848c12.95-12.92,12.766-34.055-0.281-46.814 c-6.253-6.115-13.092-12.846-18.563-18.406c-2.672-2.717-5.024-12.057-3.938-16.031l2.625-9.625l32.313,32.252 c8.553,8.533,20.156,13.344,32.251,13.344h65.471c18.176,0,33.126-14.898,33.126-33.031v-2.938 c0-18.133-14.95-32.969-33.126-32.969h-31.282c-11.228,0-21.417-6.295-26.438-16.314l-15.188-30.346 c-0.721-1.439-1.519-2.801-2.344-4.188l-6.625-11.156l18.876,6.156c4.207,1.365,8.727-0.93,10.096-5.127 c0.478-1.467,0.521-3.039,0.123-4.529l-0.251-0.977l28.907,8.25c4.255,1.207,8.686-1.256,9.896-5.502 c0.393-1.377,0.407-2.834,0.042-4.219l-0.781-3l45.189,6.563c4.378,0.635,8.443-2.391,9.08-6.758 c0.395-2.707-0.626-5.428-2.705-7.211l-99.066-85.129h-0.062c-17.159-15.014-37.812-19.383-56.783-14.969 c-9.392,2.186-15.967,9.004-21.563,14.875c-2.785,2.922-3.102,3.527-4.813,5.625c-6.726-5.229-14.239-9.318-22.251-12.252 l-5.156-6.469c-2.421-3.018-3.781-6.756-3.781-10.625v-11.094c1.447-1.359,2.992-2.604,4.188-4.217l10.282-13.846l1.969-0.496 c13.497-3.453,22.497-14.566,26.72-26.438l4.281-12.252c6.491-18.25,6.182-38.191-0.969-56.189l-0.406-0.961 c-5.114-12.87-13.474-24.192-24.282-32.782l-7.406-5.845c-4.606-3.662-9.96-6.369-15.625-7.905l-23.938-6.471 c-2.776-0.752-5.609-1.232-8.438-1.408L232.117,1020.448z"/> <path style="fill:#FA9B6B;" d="M231.117,1036.386c1.771,0.16,3.54,0.432,5.281,0.912l23.969,6.469 c3.538,0.96,6.831,2.682,9.719,4.968l7.469,5.875c8.609,6.843,15.286,15.864,19.376,26.157l0.344,0.943 c5.695,14.377,5.997,30.422,0.813,45.002l-4.313,12.154c-2.864,8.053-8.745,14.664-15.563,16.408l-32.657,8.313l-0.937-0.848 l3.625-13.781c1.354-5.107,0.254-10.504-3-14.688l-6.938-8.938c-5.106-6.57-14.537-8.463-21.751-4.252l-3.5,2.064l-1-1.688 l2.25-8.281l-9.438-28c-2.385-7.184-9.376-11.959-16.938-11.5l-17.813,1.119c-0.259,0.004-0.502-0.16-0.688-0.4l-7.063-10.063 c5.226,0.464,10.597,0.64,15.188-2.032l38.22-22.281c4.694-2.737,10.033-3.979,15.344-3.626L231.117,1036.386z"/> <path style="fill:#f7d4d9;" d="M188.897,1089.605c0.372-0.01,0.632,0.16,0.781,0.592h-0.032l7.906,23.438l-2.656,9.969 l12.25,21.406l17.532-10.219c0.388-0.225,0.628-0.176,0.937,0.256l6.938,8.938c0.173,0.225,0.301,0.545,0.218,0.848l-6.157,23.219 l14.625,13.094l13.657-3.498c-1.668,1.584-3.52,2.951-5.688,3.748l-36.001,13.281c-5.244,1.93-10.957,2.176-16.344,0.721 l-3.813-1.023c-13.444-3.631-22.054-16.842-19.938-30.877l0.625-4.438c0.765-5.076,0.676-10.219-0.344-15.252l-5.438-26.813 c-0.854-4.217-0.759-8.656,0.344-12.813l3.656-13.563L188.897,1089.605z"/> <path style="fill:#f0428d;" d="M114.551,1187.703c1.63,0,3.286,0.287,4.938,0.688c11.386,2.785,18.784,12.826,18.594,23.906H108.02 c-6.962,0-14.077,2.279-20.313,6.594c-6.236,4.314-11.726,11.17-12.532,20.063c-1.368,15.09,10.105,27.818,24.844,31.314 l-18.438,18.281c-3.651-3.156-9.865-8.313-20.688-19.5c-13.593-14.051-28.128-32.207-32.126-44.283 c-3.233-9.766-4.178-20.313,0.844-27.189c5.53-7.574,14.981-11.211,24.313-9.438c9.333,1.77,16.737,8.684,19.032,17.719 c0.571,2.283,2.113,4.203,4.219,5.252c3.555,2.637,8.574,1.891,11.21-1.664c0.732-0.988,1.226-2.129,1.447-3.338 c2.885-11.402,13.309-18.877,24.72-18.406L114.551,1187.703z"/> <path style="fill:#FFFFFF;" d="M337.746,1223.455c10.818,0,21.548,3.781,31.814,12.783c0.021,0,0.042,0,0.062,0l78.315,67.252 l-30.032-4.281c-4.379-0.625-8.438,2.41-9.065,6.779c-0.153,1.064-0.088,2.15,0.189,3.189l0.251,0.961l-28.876-8.25 c-4.254-1.213-8.687,1.246-9.902,5.49c-0.398,1.391-0.41,2.863-0.036,4.26l0.093,0.336l-21.751-7.063 c-0.155-0.059-0.311-0.111-0.469-0.16l-31.251-52.502c-2.494-4.184-5.461-7.98-8.594-11.594c1.484-1.863,2.074-2.781,4.875-5.719 c4.81-5.047,11.509-9.805,13.563-10.281c3.61-0.848,7.207-1.297,10.813-1.313L337.746,1223.455z"/> <path style="fill:#f7d4d9;" d="M108.02,1228.267H246.43c23.342,0,44.916,12.266,56.846,32.283l50.345,84.439 c0.627,1.057,1.201,2.125,1.75,3.217l15.188,30.283c7.72,15.402,23.521,25.156,40.783,25.156h31.282 c9.518,0,17.094,7.504,17.094,17v2.938c0,9.496-7.576,17.064-17.094,17.064h-65.471c-7.853,0-15.354-3.119-20.907-8.658 l-55.314-55.189l-11.313,11.281l9.938,9.938l-5,18.438c-2.998,10.967-0.26,23.076,7.938,31.406 c5.603,5.695,12.458,12.473,18.751,18.625c6.927,6.775,7.017,17.314,0.188,24.127l-0.844,0.848c-6.73,6.713-17.395,6.713-24.126,0 l-41.282-41.189c-3.202-3.193-5-7.512-5-12.031v-29.314c0-10.623-4.221-20.77-11.75-28.279l-6.906-6.875 c-10.217-10.191-17.9-22.639-22.47-36.314l-3-8.939c-5.932-17.754-8.938-36.35-8.938-55.063v-2.156h18.532v-15.969H108.02 c-9.345,0-17.434-8.748-16.876-14.906c0.286-3.156,2.241-5.992,5.688-8.377C100.279,1229.664,105.015,1228.267,108.02,1228.267 L108.02,1228.267z"/> <g> <path style="fill:#E2B5BB;" d="M238.422,1228.256c23.342,0,44.916,12.266,56.846,32.281l50.345,84.441 c0.627,1.057,1.201,2.125,1.75,3.217l15.188,30.283c7.72,15.402,23.521,25.156,40.783,25.156h8 c-17.262,0-33.063-9.754-40.783-25.156l-15.188-30.283c-0.548-1.088-1.123-2.164-1.75-3.217l-50.345-84.441 c-11.93-20.016-33.504-32.281-56.846-32.281H238.422z M292.924,1376.791l-11.313,11.281l9.938,9.938l-5,18.438 c-2.998,10.967-0.26,23.076,7.938,31.406c5.603,5.695,12.458,12.473,18.751,18.625c6.927,6.775,7.016,17.314,0.188,24.127 l-0.844,0.848c-2.315,2.309-5.138,3.529-8.063,4.252c5.581,1.377,11.647,0.16,16.063-4.252l0.844-0.848 c6.829-6.813,6.739-17.35-0.188-24.127c-6.293-6.154-13.148-12.932-18.751-18.625c-8.197-8.332-10.935-20.439-7.938-31.406 l5-18.438l-9.938-9.938l7.313-7.281L292.924,1376.791z M434.616,1403.636c9.518,0,17.094,7.504,17.094,17v2.938 c0,9.496-7.576,17.063-17.094,17.063h8c9.518,0,17.094-7.566,17.094-17.063v-2.938c0-9.496-7.576-17-17.094-17H434.616z"/> <path style="fill:#E2B5BB;" d="M188.889,1089.595l-6.531,0.4c0.07,0.16,0.202,0,0.25,0.191h-0.032l7.906,23.438l-2.656,9.969 l12.25,21.406l5.281-3.094l-10.469-18.314l2.656-9.969l-7.907-23.438h0.032c-0.149-0.465-0.409-0.607-0.781-0.592 L188.889,1089.595z M224.672,1134.847l-4.344,2.533l5.156,6.656c0.173,0.225,0.301,0.545,0.219,0.848l-6.156,23.219l14.625,13.094 l5.5-1.408l-13.063-11.688l6.156-23.219c0.083-0.305-0.046-0.623-0.219-0.848l-6.938-8.938c-0.31-0.432-0.55-0.48-0.937-0.256 L224.672,1134.847z M254.891,1177.693l-11.563,2.969c-0.426,0.207-0.735,0.607-1.188,0.783l-36.001,13.281 c-1.815,0.672-3.731,0.863-5.625,1.119c4.271,0.545,8.61,0.367,12.688-1.119l36.001-13.281c2.168-0.801,4.02-2.164,5.688-3.748 L254.891,1177.693z"/> </g> <path style="fill:#BD5858;" d="M114.543,1187.693c-1.438,0-2.763,0.385-4.156,0.561c0.324,0,0.645,0,0.969,0.16 c11.386,2.785,18.784,12.828,18.594,23.906h8.125c0.19-11.08-7.208-21.121-18.594-23.906c-1.651-0.4-3.307-0.607-4.938-0.688 L114.543,1187.693z M46.978,1187.853c-0.453,0-0.864,0.24-1.313,0.305c0.042,0.008,0.083-0.008,0.125,0 c9.333,1.771,16.737,8.686,19.032,17.721c0.571,2.283,2.113,4.201,4.219,5.25c2.58,1.904,6.047,2.088,8.813,0.465 c-0.237-0.143-0.467-0.299-0.688-0.465c-2.106-1.049-3.647-2.967-4.219-5.25c-2.295-9.035-9.699-15.949-19.032-17.721 C51.583,1187.711,49.263,1187.631,46.978,1187.853z M99.886,1212.322c-6.962,0-14.077,2.279-20.313,6.596 c-6.236,4.313-11.726,11.17-12.532,20.063c-1.368,15.09,10.105,27.816,24.845,31.314l-14.625,14.5 c1.48,1.297,3.285,2.893,4.313,3.781l18.438-18.281c-14.74-3.498-26.212-16.225-24.845-31.314 c0.806-8.893,6.295-15.75,12.532-20.063c6.236-4.316,13.351-6.596,20.313-6.596H99.886z"/> <path style="fill:#D5845B;" d="M231.109,1036.376c-1.722-0.16-3.42,0.224-5.125,0.432c0.928,0.16,1.865,0.224,2.781,0.464 l23.97,6.469c3.538,0.96,6.831,2.684,9.719,4.97l7.469,5.875c8.609,6.842,15.286,15.864,19.376,26.157l0.344,0.943 c5.695,14.377,5.997,30.422,0.812,45.002l-4.313,12.156c-2.864,8.051-8.745,14.662-15.563,16.406l-25.72,6.563l-0.25,0.912 l0.937,0.848l32.657-8.313c6.818-1.744,12.699-8.355,15.563-16.406l4.313-12.156c5.185-14.58,4.883-30.623-0.812-45.002 l-0.344-0.943c-4.09-10.293-10.767-19.315-19.376-26.157l-7.469-5.875c-2.888-2.286-6.181-4.01-9.719-4.97l-23.97-6.469 c-1.741-0.464-3.511-0.784-5.281-0.912L231.109,1036.376z M162.357,1064.313l0.125,0.192c0.328,0,0.643-0.16,0.969-0.16 c-0.365,0-0.729,0-1.094,0L162.357,1064.313z M180.295,1073.658l-10.907,0.688h0.032c0.186,0.271,0.429,0.416,0.688,0.4l13-0.816 c-0.94-0.16-1.845-0.367-2.813-0.305L180.295,1073.658z M214.64,1119.035c-0.744,0.16-1.428,0.527-2.156,0.752l-0.437,1.656 l1,1.688l3.5-2.063c1.477-0.863,3.08-1.297,4.688-1.656c-2.152-0.512-4.391-0.721-6.594-0.385L214.64,1119.035z"/> <path style="fill:#ffffff;" d="M337.746,1223.455c10.818,0,21.548,3.781,31.814,12.783c0.021,0,0.042,0,0.062,0l78.315,67.252 l-30.032-4.281c-4.379-0.625-8.438,2.41-9.065,6.779c-0.153,1.064-0.088,2.15,0.189,3.189l0.251,0.961l-28.876-8.25 c-4.254-1.213-8.687,1.246-9.902,5.49c-0.398,1.391-0.41,2.863-0.036,4.26l0.093,0.336l-21.751-7.063 c-0.155-0.059-0.311-0.111-0.469-0.16l-31.251-52.502c-2.494-4.184-5.461-7.98-8.594-11.594c1.484-1.863,2.074-2.781,4.875-5.719 c4.81-5.047,11.509-9.805,13.563-10.281c3.61-0.848,7.207-1.297,10.813-1.313L337.746,1223.455z"/> <path style="fill:#e3e8f2;" d="M337.738,1223.443c-1.677,0.01-3.356,0.4-5.031,0.592c8.489,1.297,16.873,5.09,24.97,12.189 c0.021,0,0.042,0,0.062,0l75.94,65.221l14.25,2.031l-78.315-67.252c-0.021,0-0.042,0-0.062,0 c-10.266-9.002-20.995-12.832-31.814-12.783L337.738,1223.443z M404.427,1299.195c-4.042,0.232-7.273,3.438-7.531,7.469 l12.375,3.533l-0.25-0.977c-0.929-3.516,0.637-7.215,3.813-9l-6.813-0.977c-0.53-0.053-1.064-0.053-1.594,0L404.427,1299.195z M366.145,1301.633c-3.769,0.082-6.97,2.775-7.688,6.469l12.094,3.938l-0.094-0.352c-0.821-3.115,0.313-6.416,2.875-8.375 l-4.813-1.377c-0.772-0.219-1.573-0.322-2.375-0.305L366.145,1301.633z"/> </g> </g>
</svg>