<!DOCTYPE svg PUBLIC "-//W3C//DTD SVG 1.1//EN" "http://www.w3.org/Graphics/SVG/1.1/DTD/svg11.dtd">
<!-- Uploaded to: SVG Repo, www.svgrepo.com, Transformed by: SVG Repo Mixer Tools -->
<svg fill="#ee9ca7" width="800px" height="800px" viewBox="-1.2 -1.2 26.40 26.40" xmlns="http://www.w3.org/2000/svg" stroke="#ee9ca7">
<g id="SVGRepo_bgCarrier" stroke-width="0"/>
<g id="SVGRepo_tracerCarrier" stroke-linecap="round" stroke-linejoin="round"/>
<g id="SVGRepo_iconCarrier">
<path d="m14.145 16.629c-.04-.527-.064-1.142-.064-1.762 0-.255.004-.51.012-.763l-.001.037c.731-.76 1.219-1.758 1.333-2.868l.002-.021c.339-.028.874-.358 1.03-1.666.016-.074.025-.16.025-.248 0-.396-.188-.747-.48-.97l-.003-.002c.552-1.66 1.698-6.796-2.121-7.326-.393-.69-1.399-1.04-2.707-1.04-5.233.096-5.864 3.951-4.72 8.366-.294.226-.482.577-.482.972 0 .088.009.174.027.257l-.001-.008c.16 1.306.691 1.638 1.03 1.666.127 1.134.628 2.133 1.374 2.888.007.214.011.466.011.718 0 .623-.023 1.24-.069 1.851l.005-.081c-1.038 2.784-8.026 2.002-8.346 7.371h22.458c-.322-5.369-7.278-4.587-8.314-7.371z"/>
</g>
</svg>